<svg enable-background="new 0 0 1657.89 1388.98" viewBox="0 0 1657.89 1388.98" xmlns="http://www.w3.org/2000/svg"><g stroke-miterlimit="10"><path d="m23.84 1079.6h1330.93v262.67h-1330.93z" fill="#bebebe" stroke="#000" stroke-width=".9993"/><path d="m1163.62 1053.83-570.3-.73 4.57 13.5-4.19 4.38 8.94 17.87-257.29-.44-2.83 82.32-138.56-4.13 40.23-1070.84 899.86 6.46 7 86.04-15 10z" fill="#fef37f" stroke="#000"/><path d="m26.22 87.65-2.38 1069.38 180.12 9.57 40.23-1070.84z" fill="#fffac1" stroke="#000"/><path d="m1354.77 1193.42-655.36-3.95-23.28-22.99-32.71-1.65-34.21-66.15-23.62-2.87-2.85-6.53 19.9-.43-8.94-17.87 4.19-4.38-4.57-13.5 570.3.73-27.57-855.57 15-10 203.72-9.21z" fill="#fffac1" stroke="#000"/><path d="m1353.71 92.25 1.06 86.8-203.72 9.21-7-86.04z" fill="#fffac1" stroke="#000"/><path d="m455.44 739.5c3.09 23.49 14.37 22.54 33.27 43.99 5.99 6.79 96.53 29.56 114.44 20.22 22.18-.41 40.42-4.38 46.37-14.46 10.2.93 16.07 3.09 61.45-20.09 30.3-5.78 60.94.31 87.34 3.59 70.95 32.56 78.06 31.95 96.94 42.95 69.81 17.43 77.54-45.62 67.86-109.13-14.74-19.01-2.37-35.08-6.7-95.34 3.82-8.3 4.1-22.3 5.87-31.97 5.58-30.46 2.66-83.12 1.93-118.25-3.5-14.78-20.68-27.36-33.45-48.81-26.57-11.24-52.08-32.69-69.62-38.44-19.81-6.5-34.04-21.42-49.56-25.03-18.39 4.6-18.4 17.07-50.58 15.33-47.1-2.55-41-31.73-58.35-21.87-26.06 14.82-25.94 42.82-35.66 58.65-45.61 27.12-65.7 43.81-75.1 49.04-6.64 16.86-18.56 48.6-22.12 98.3-.86 11.94-4.54 25.42-5.87 36.78-4.98 42.43-16.4 58.4-45.57 97.88-48.68 39.35-62.89 56.66-62.89 56.66z" fill="#fdbe62" stroke="#020202" stroke-width="2"/><path d="m717.84 405.21c-1.48.99 63.79 20.27 74.17 17.31 10.38-2.97 91.48-11.74 105.33.31s46.48 42.22 41.54 61.01-18.79 73.18-1.48 101.86c.49 41.04 6.92 63.29 6.43 81.59-.5 18.3-17.8 40.05-44.5 32.64-22.25 0-36.1.51-43.02 1.49s-56.37-20.78-69.72-20.28-20.27 5.24-38.57 3.86-39.06 29.77-42.03 64.38c-12.86 14.34-23.73 18.3-37.09 18.79-13.35.49-20.77 5.93-33.62 11.37-12.86 5.44-56.5 2.42-56.5 2.42s-35.47 3.67-14.71-42.97c1.47-18.05 1.47-18.05 9.89-33.13 1.82-14.39.57-14.14 6.81-28.09-1.59-7.53.63-20.91 8.51-33.72-1.77-11.52 6.22-37.31 6.22-43.74s11.58-29.44 22.46-36.86 30.72-52.56 68.15-84.06c12.4-10.43 8.99-15.65 11.95-29.58 2.97-13.94 19.78-44.6 19.78-44.6z" fill="#ff964c" stroke="#020202" stroke-width="2"/><path d="m797.61 438.1c4.68-2.17 33.82-17.16 53.58-9.58 13.53 13.48 9.05 6.62 15.16 16.5 4.11 6.65 20.28 33.51 30.16 34.12 17.18 1.06 29.17 42.93-4.94 85.05-35.24 43.51-37.94 54.27-69.72 66.26-9.73 3.67-7.32 8.89-19.9 10.74-20.29 2.98-71.26 36.64-80.98 45.04-13.73 16.38-19.68 15.84-20.27 42.63-11.87 13.85-6.75 16.49-19.28 19.29-20 4.46-11.28 9.25-25.04 14-13.75 4.75-80.29 26.05-89.19-7.08 6.92-26.7 8.9-22.01 10.64-34.86 1.74-12.86 22.49-26.45 27.43-50.68 11.37-11.37 24.03-21.43 32.64-46.48 9.4-20.27 20.43-33.96 23.74-41.04 6.92-14.83 40.05-34.61 51.92-41.04s23.79-11.74 25.06-19.56c15.33-8.41 40.22-21.97 41.2-46.2.97-24.25 9.33-33.19 17.79-37.11z" fill="#ff763b" stroke="#020202" stroke-width="2"/><path d="m780.82 539.11c4.96-1.75 17.04-8.94 22.48-4s12.02 5.51 20.73 6.99 22.42 8.42 11.7 25.73-26.05 29.17-28.03 37.09c-1.98 7.91-11.87 1.98-25.71 17.31-14.16 9.84 1.18.49-29.08 17.31-30.26 16.81-40.88 14.41-52.26 44.18-11.37 29.77-5.49 23.23-6.99 32.22-1.46 8.78-5.54 8.86-12.05 20.52-6.5 11.66-34.28 21.43-45.15 27.44-16.81 2.42-83.1 3.62-51.94-28.02 10.88-22.75 11.05-32.06 25.39-45.16 4.57-13.99 7.42-36.69 43.51-61.24 36.1-24.55 58.54-34.02 71.7-47.29 25.11-25.34 33.72-35.33 55.7-43.08z" fill="#ff5d2e" stroke="#020202" stroke-width="2"/><path d="m770.58 553.85c1.18-3.03 29.83-15.78 42.07 5.7 5.14 11.49-5.1 32.51-18.34 37.26-7.99 2.87-24.23 18.23-29.47 23.23-5.25 5-21.73 15.98-29.22 17.48s-27.72 12.74-31.47 25.73-10.49 13.49-11.99 18.48c-1.5 5-1 39.71-9.99 45.46s-15.98 16.73-20.73 20.73-59.19 3.25-59.19 3.25-26.98-12.24-6.99-32.22c19.98-19.98 19.73-25.23 20.73-29.72 1-4.5 14.99-12.24 20.73-24.48s24.98-31.47 34.22-29.97 7.75-4.75 12.86-5.99c5.12-1.25 18.43-5.49 28.6.25 9.74 5.5 13.31 1.41 19.55 1.16s18.41-18.64 15.41-37.62c8.23-9.51 19.72-29.74 23.22-38.73z" fill="#ff4924" stroke="#020202" stroke-width="2"/><path d="m679.92 644.76s13.21 20.98 7.48 26.47c-5.73 5.5-3.23 5.25-7.48 10.24s2 24.73-3 30.47-5.74 11.49-10.99 17.23c-5.25 5.75-27.72 19.23-49.2 11.24-1.75-15.49-3.8-17.37 2-21.23 4.5-3 2.27-7.66 9.99-17.23 7.33-9.09 18.48-13.67 21.48-24.2 7.49-6.27 8.74-4.53 12.74-14.27s16.98-18.72 16.98-18.72z" fill="#ff391c" stroke="#020202" stroke-width="2"/><path d="m917.05 99.59 7.33 17.33-44 172-36.67 31.33-10.66 22-21.34 10.67-19.33 49.33-52-8-22-29.33-17.33 4-8-15.33-93.33 65.33-57.33 207.33 6.67 60-66 105.33-2.67 47.33-8 8s12 62.67 26 65.33c14 2.67 30 8 30 8l69.33 131.33" fill="none" stroke="#333"/><path d="m230.72 419.6 38.67-28h36s3.96 4.93 11.6 6.23c12.53 11.23 29.13 20.99 57.73 28.43 20.54 2.81.05 56.46 70.18 60.75 6.82.42 36.29 2.44 36.29 2.44s7.9 9.75 21.32 15.13c13.74 5.52 32.39 3.98 54.59-1.16 11.88-2.75 48.15-23.2 64.78-15.76s17.07-2.63 24.95-9.19c4.08-3.4 22.01 20.55 32.24 20.9 25.39.88 56.35-1.43 80.83 3.43 25.66 5.1 82.6.62 87.85 5.43 5.25 4.82 68.72 2.19 87.1-10.5s55.59-16.2 78.35-16.63c22.76-.44 29.33-17.07 44.65-16.63s30.2 6.57 44.21 9.63 42.02-14.44 42.02-14.44" fill="none" stroke="#333"/></g><path d="m61.38 457.64-2.52 7.63h-3.24l8.24-24.26h3.78l8.28 24.26h-3.35l-2.59-7.63zm7.95-2.45-2.38-6.98c-.54-1.58-.9-3.02-1.26-4.43h-.07c-.36 1.44-.76 2.92-1.22 4.39l-2.38 7.02z"/><path d="m79.49 441.34c1.58-.32 3.85-.5 6.01-.5 3.35 0 5.51.61 7.02 1.98 1.22 1.08 1.91 2.74 1.91 4.61 0 3.2-2.02 5.33-4.57 6.19v.11c1.87.65 2.99 2.38 3.56 4.9.79 3.38 1.37 5.72 1.87 6.66h-3.24c-.4-.68-.94-2.77-1.62-5.8-.72-3.35-2.02-4.61-4.86-4.72h-2.95v10.51h-3.13zm3.13 11.05h3.2c3.35 0 5.47-1.84 5.47-4.61 0-3.13-2.27-4.5-5.58-4.54-1.51 0-2.59.14-3.1.29v8.86z"/><path d="m101.99 441.01v24.26h-3.13v-24.26z"/><path d="m105.8 463.44 13.46-19.69v-.11h-12.31v-2.63h16.38v1.91l-13.39 19.62v.11h13.57v2.63h-17.71z"/><path d="m147.34 452.89c0 8.35-5.08 12.78-11.27 12.78-6.41 0-10.91-4.97-10.91-12.31 0-7.7 4.79-12.74 11.27-12.74 6.63 0 10.91 5.07 10.91 12.27zm-18.82.4c0 5.18 2.81 9.83 7.74 9.83 4.97 0 7.78-4.57 7.78-10.08 0-4.82-2.52-9.86-7.74-9.86-5.19-.01-7.78 4.78-7.78 10.11z"/><path d="m151.41 465.27v-24.26h3.42l7.77 12.27c1.8 2.84 3.2 5.4 4.36 7.88l.07-.04c-.29-3.24-.36-6.19-.36-9.97v-10.15h2.95v24.26h-3.17l-7.7-12.31c-1.69-2.7-3.31-5.47-4.54-8.1l-.11.04c.18 3.06.25 5.98.25 10.01v10.37z"/><path d="m179.02 457.64-2.52 7.63h-3.24l8.24-24.26h3.78l8.28 24.26h-3.35l-2.59-7.63zm7.96-2.45-2.38-6.98c-.54-1.58-.9-3.02-1.26-4.43h-.07c-.36 1.44-.76 2.92-1.22 4.39l-2.38 7.02z"/><path d="m968.73 1118.34h-7.38v-2.66h17.96v2.66h-7.42v21.6h-3.17v-21.6z"/><path d="m994.57 1128.57h-9.43v8.75h10.51v2.63h-13.64v-24.26h13.1v2.63h-9.97v7.67h9.43z"/><path d="m1013.01 1139.94-3.1-5.36c-1.26-2.05-2.05-3.38-2.81-4.79h-.07c-.68 1.4-1.37 2.7-2.63 4.82l-2.92 5.33h-3.6l7.41-12.27-7.13-11.99h3.64l3.2 5.69c.9 1.58 1.58 2.81 2.23 4.1h.11c.68-1.44 1.29-2.56 2.2-4.1l3.31-5.69h3.6l-7.38 11.81 7.56 12.45z"/><path d="m1023.88 1132.31-2.52 7.63h-3.24l8.24-24.26h3.78l8.28 24.26h-3.35l-2.59-7.63zm7.95-2.45-2.38-6.98c-.54-1.58-.9-3.02-1.26-4.43h-.07c-.36 1.44-.76 2.92-1.22 4.39l-2.38 7.02z"/><path d="m1041.56 1136.12c1.4.86 3.46 1.58 5.62 1.58 3.2 0 5.07-1.69 5.07-4.14 0-2.27-1.29-3.56-4.57-4.82-3.96-1.4-6.41-3.46-6.41-6.88 0-3.78 3.13-6.59 7.85-6.59 2.48 0 4.28.58 5.36 1.19l-.86 2.56c-.79-.43-2.41-1.15-4.61-1.15-3.31 0-4.57 1.98-4.57 3.64 0 2.27 1.48 3.38 4.82 4.68 4.1 1.58 6.19 3.56 6.19 7.13 0 3.74-2.77 6.98-8.5 6.98-2.34 0-4.89-.68-6.19-1.55z"/><path d="m1178.19 138.22c0 8.35-5.08 12.78-11.27 12.78-6.41 0-10.91-4.97-10.91-12.31 0-7.7 4.79-12.74 11.27-12.74 6.62 0 10.91 5.08 10.91 12.27zm-18.83.4c0 5.18 2.81 9.83 7.74 9.83 4.97 0 7.77-4.57 7.77-10.08 0-4.82-2.52-9.86-7.74-9.86-5.18 0-7.77 4.78-7.77 10.11z"/><path d="m1182.26 126.35h3.13v11.7h.11c.65-.94 1.29-1.8 1.91-2.59l7.42-9.11h3.89l-8.78 10.29 9.47 13.97h-3.71l-7.99-11.91-2.3 2.66v9.25h-3.13v-24.26z"/><path d="m1201.77 126.35h3.13v21.63h10.37v2.63h-13.5z"/><path d="m1222.69 142.98-2.52 7.63h-3.24l8.24-24.26h3.78l8.28 24.26h-3.35l-2.59-7.63zm7.95-2.45-2.38-6.98c-.54-1.58-.9-3.02-1.26-4.43h-.07c-.36 1.44-.76 2.92-1.22 4.39l-2.38 7.02z"/><path d="m1243.92 126.35v10.15h11.73v-10.15h3.17v24.26h-3.17v-11.37h-11.73v11.37h-3.13v-24.26z"/><path d="m1285 138.22c0 8.35-5.08 12.78-11.27 12.78-6.41 0-10.91-4.97-10.91-12.31 0-7.7 4.79-12.74 11.27-12.74 6.62 0 10.91 5.08 10.91 12.27zm-18.83.4c0 5.18 2.81 9.83 7.74 9.83 4.97 0 7.77-4.57 7.77-10.08 0-4.82-2.52-9.86-7.74-9.86-5.18 0-7.77 4.78-7.77 10.11z"/><path d="m1309.51 139.95c-.18-3.38-.4-7.45-.36-10.47h-.11c-.83 2.84-1.84 5.87-3.06 9.21l-4.28 11.77h-2.38l-3.92-11.55c-1.15-3.42-2.12-6.55-2.81-9.43h-.07c-.07 3.02-.25 7.09-.47 10.73l-.65 10.4h-2.99l1.69-24.26h4l4.14 11.73c1.01 2.99 1.84 5.65 2.45 8.17h.11c.61-2.45 1.48-5.11 2.56-8.17l4.32-11.73h4l1.51 24.26h-3.06z"/><path d="m1321.58 142.98-2.52 7.63h-3.24l8.24-24.26h3.78l8.28 24.26h-3.35l-2.59-7.63zm7.95-2.45-2.38-6.98c-.54-1.58-.9-3.02-1.26-4.43h-.07c-.36 1.44-.76 2.92-1.22 4.39l-2.38 7.02z"/><path d="m1380.55 48.27v-25.05h5.81v5.14h.67c.29-1.66.89-2.94 1.8-3.82s2.1-1.32 3.58-1.32h1.25v5.95h-1.92c-1.82 0-3.18.29-4.06.86-.88.58-1.32 1.58-1.32 3.02v15.22z"/><path d="m1406.08 48.71c-1.51 0-2.88-.25-4.09-.74s-2.25-1.26-3.1-2.3-1.51-2.39-1.98-4.03-.7-3.62-.7-5.92.23-4.28.7-5.92 1.13-2.99 1.98-4.03 1.88-1.81 3.1-2.3c1.21-.49 2.57-.74 4.09-.74 1.51 0 2.87.25 4.09.74 1.21.49 2.24 1.26 3.1 2.3.85 1.04 1.51 2.39 1.98 4.03s.7 3.62.7 5.92-.23 4.28-.7 5.92-1.13 2.99-1.98 4.03-1.88 1.81-3.1 2.3-2.58.74-4.09.74zm-3.39-28.26c-.89 0-1.51-.16-1.85-.49-.35-.32-.52-.8-.52-1.42v-.9c0-.62.17-1.1.52-1.42s.96-.49 1.85-.49 1.51.16 1.85.49c.35.32.52.8.52 1.42v.9c0 .62-.17 1.1-.52 1.42-.34.32-.96.49-1.85.49zm3.39 24.3c1.63 0 2.89-.51 3.78-1.53s1.33-2.48 1.33-4.37v-6.26c0-1.9-.44-3.35-1.33-4.37s-2.15-1.53-3.78-1.53-2.89.51-3.78 1.53-1.33 2.48-1.33 4.37v6.26c0 1.9.44 3.35 1.33 4.37s2.15 1.53 3.78 1.53zm3.31-24.3c-.89 0-1.51-.16-1.85-.49-.35-.32-.52-.8-.52-1.42v-.9c0-.62.17-1.1.52-1.42s.97-.49 1.85-.49 1.51.16 1.85.49c.35.32.52.8.52 1.42v.9c0 .62-.17 1.1-.52 1.42-.34.32-.96.49-1.85.49z"/><path d="m1420.8 48.27v-25.05h5.81v4.18h.67c.99-3.17 2.99-4.75 6-4.75 2.24 0 3.97.76 5.18 2.28 1.22 1.52 1.82 3.69 1.82 6.5v16.85h-5.81v-15.85c0-3.26-1.22-4.9-3.65-4.9-1.19 0-2.18.34-3 1.03s-1.22 1.66-1.22 2.9v16.8h-5.8z"/><path d="m1453.25 48.27c-2.02 0-3.47-.45-4.37-1.34-.9-.9-1.34-2.32-1.34-4.27v-14.79h-3.31v-4.66h1.73c.83 0 1.4-.19 1.7-.58.3-.38.46-.99.46-1.82v-4.41h5.23v6.82h4.51v4.66h-4.51v15.74h4.13v4.66h-4.23z"/><path d="m1482.39 50.48c0 1.31-.2 2.46-.6 3.46-.4.99-1.06 1.82-1.99 2.5-.93.67-2.16 1.18-3.7 1.51s-3.42.5-5.66.5c-1.98 0-3.65-.14-4.99-.41s-2.43-.66-3.26-1.18c-.83-.51-1.42-1.14-1.78-1.87-.35-.74-.53-1.57-.53-2.5 0-1.28.35-2.29 1.06-3.02.7-.74 1.71-1.2 3.02-1.39v-.91c-1.02-.26-1.78-.74-2.28-1.44s-.74-1.57-.74-2.59.35-1.88 1.06-2.57c.7-.69 1.73-1.16 3.07-1.42v-.62c-2.72-1.34-4.08-3.81-4.08-7.39 0-2.72.77-4.82 2.3-6.29 1.54-1.47 3.92-2.21 7.15-2.21 1.44 0 2.75.22 3.94.67v-.91c0-2.27 1.09-3.41 3.26-3.41h3.5v4.51h-4.85v.96c1.18.58 2.08 1.43 2.69 2.57s.91 2.5.91 4.1c0 2.72-.76 4.81-2.28 6.26-1.52 1.46-3.91 2.18-7.18 2.18-1.31 0-2.53-.13-3.65-.38-.45.19-.78.5-1.01.91-.22.42-.34.88-.34 1.39 0 .64.21 1.12.62 1.44s1.1.48 2.06.48h6.38c2.85 0 4.87.61 6.07 1.82 1.23 1.24 1.83 2.98 1.83 5.25zm-5.43.67c0-.86-.29-1.52-.86-1.97-.58-.45-1.54-.67-2.88-.67h-7.73c-.71.61-1.06 1.5-1.06 2.69 0 1.02.34 1.81 1.03 2.35s1.9.82 3.62.82h2.83c1.82 0 3.12-.26 3.89-.79.78-.53 1.16-1.34 1.16-2.43zm-6.53-15.55c2.66 0 3.98-1.31 3.98-3.94v-1.1c0-2.62-1.33-3.94-3.98-3.94s-3.98 1.31-3.98 3.94v1.1c0 2.63 1.33 3.94 3.98 3.94z"/><path d="m1494.72 48.85c-1.63 0-3.13-.26-4.49-.79s-2.52-1.33-3.48-2.4-1.7-2.43-2.23-4.08-.79-3.59-.79-5.83c0-4.51.9-7.82 2.71-9.94 1.81-2.11 4.39-3.17 7.75-3.17s5.94 1.06 7.75 3.17 2.71 5.42 2.71 9.94v1.39h-14.83v1.63c0 1.66.46 2.98 1.39 3.94s2.21 1.44 3.84 1.44c1.38 0 2.54-.3 3.48-.89s1.75-1.45 2.42-2.57l3.17 3.31c-.93 1.47-2.18 2.65-3.74 3.53s-3.45 1.32-5.66 1.32zm-.53-21.74c-2.91 0-4.37 1.73-4.37 5.18v1.25h8.74v-1.25c0-3.46-1.45-5.18-4.37-5.18z"/><path d="m1509.5 48.27v-25.05h5.81v4.18h.67c.99-3.17 2.99-4.75 6-4.75 2.24 0 3.97.76 5.18 2.28 1.22 1.52 1.82 3.69 1.82 6.5v16.85h-5.81v-15.85c0-3.26-1.22-4.9-3.65-4.9-1.18 0-2.18.34-3 1.03s-1.22 1.66-1.22 2.9v16.8h-5.8z"/><path d="m1542.62 48.85c-2.08 0-3.9-.38-5.47-1.13s-2.94-1.88-4.13-3.38l3.55-3.46c.8 1.12 1.7 1.97 2.69 2.54.99.58 2.14.86 3.46.86 2.43 0 3.65-1.02 3.65-3.07 0-.8-.2-1.43-.6-1.9-.4-.46-1.08-.78-2.04-.94l-2.35-.43c-2.62-.48-4.53-1.3-5.71-2.45s-1.78-2.83-1.78-5.04c0-2.62.77-4.58 2.3-5.88 1.54-1.3 3.71-1.94 6.53-1.94 1.95 0 3.64.32 5.06.96s2.66 1.58 3.72 2.83l-3.41 3.41c-.64-.8-1.42-1.44-2.33-1.92s-1.93-.72-3.05-.72c-2.24 0-3.36 1.01-3.36 3.02 0 .83.22 1.46.67 1.9.45.43 1.15.73 2.11.89l2.4.43c2.62.48 4.5 1.29 5.64 2.42 1.13 1.14 1.7 2.73 1.7 4.78 0 2.59-.8 4.61-2.4 6.05-1.58 1.45-3.87 2.17-6.85 2.17z"/><path d="m1450.06 128.35c-1.65 0-3.08-.29-4.28-.86-1.21-.57-2.2-1.47-2.98-2.69-.79-1.22-1.36-2.79-1.72-4.7-.36-1.92-.54-4.22-.54-6.91s.18-4.99.54-6.91.94-3.49 1.72-4.7c.78-1.22 1.78-2.11 2.98-2.69 1.2-.57 2.63-.86 4.28-.86s3.08.29 4.28.86 2.19 1.47 2.96 2.69 1.34 2.79 1.72 4.7c.38 1.92.57 4.22.57 6.91s-.19 4.99-.57 6.91-.95 3.49-1.72 4.7c-.77 1.22-1.76 2.11-2.96 2.69s-2.63.86-4.28.86zm0-3.82c1.76 0 3-.59 3.72-1.79.71-1.19 1.07-3.02 1.07-5.48v-8.15c0-2.46-.36-4.29-1.07-5.48s-1.95-1.79-3.72-1.79-3 .6-3.72 1.79c-.71 1.19-1.07 3.02-1.07 5.48v8.15c0 2.46.36 4.29 1.07 5.48.72 1.19 1.95 1.79 3.72 1.79z"/><path d="m1466.94 128.31c-.98 0-1.71-.22-2.18-.65-.48-.43-.71-1.06-.71-1.87v-.84c0-.81.24-1.43.71-1.87.48-.43 1.2-.65 2.18-.65s1.71.22 2.18.65.71 1.06.71 1.87v.84c0 .81-.24 1.44-.71 1.87s-1.2.65-2.18.65z"/><path d="m1483.83 128.35c-1.65 0-3.08-.29-4.28-.86-1.21-.57-2.2-1.47-2.98-2.69-.79-1.22-1.36-2.79-1.72-4.7-.36-1.92-.54-4.22-.54-6.91s.18-4.99.54-6.91.94-3.49 1.72-4.7c.78-1.22 1.78-2.11 2.98-2.69 1.2-.57 2.63-.86 4.28-.86s3.08.29 4.28.86 2.19 1.47 2.96 2.69 1.34 2.79 1.72 4.7c.38 1.92.57 4.22.57 6.91s-.19 4.99-.57 6.91-.95 3.49-1.72 4.7c-.77 1.22-1.76 2.11-2.96 2.69s-2.63.86-4.28.86zm0-3.82c1.76 0 3-.59 3.72-1.79.71-1.19 1.07-3.02 1.07-5.48v-8.15c0-2.46-.36-4.29-1.07-5.48s-1.95-1.79-3.72-1.79-3 .6-3.72 1.79c-.71 1.19-1.07 3.02-1.07 5.48v8.15c0 2.46.36 4.29 1.07 5.48s1.95 1.79 3.72 1.79z"/><path d="m1498.36 127.85v-3.82h7.01v-21.43l-6.55 4.24-1.85-3.11 8.06-5.21h4.7v25.49h6.3v3.82h-17.67z"/><path d="m1529.02 117.26v-4.41h10.58v4.41z"/><path d="m1562.11 128.35c-1.65 0-3.08-.29-4.28-.86-1.21-.57-2.2-1.47-2.98-2.69s-1.36-2.79-1.72-4.7c-.36-1.92-.55-4.22-.55-6.91s.18-4.99.55-6.91c.36-1.92.94-3.49 1.72-4.7.78-1.22 1.78-2.11 2.98-2.69 1.2-.57 2.63-.86 4.28-.86s3.08.29 4.29.86c1.2.57 2.19 1.47 2.96 2.69s1.34 2.79 1.72 4.7c.38 1.92.57 4.22.57 6.91s-.19 4.99-.57 6.91-.95 3.49-1.72 4.7c-.77 1.22-1.76 2.11-2.96 2.69-1.21.57-2.64.86-4.29.86zm0-3.82c1.76 0 3-.59 3.72-1.79.71-1.19 1.07-3.02 1.07-5.48v-8.15c0-2.46-.36-4.29-1.07-5.48s-1.95-1.79-3.72-1.79c-1.76 0-3 .6-3.72 1.79-.71 1.19-1.07 3.02-1.07 5.48v8.15c0 2.46.36 4.29 1.07 5.48.72 1.19 1.96 1.79 3.72 1.79z"/><path d="m1579 128.31c-.98 0-1.71-.22-2.18-.65s-.71-1.06-.71-1.87v-.84c0-.81.24-1.43.71-1.87.48-.43 1.2-.65 2.18-.65s1.71.22 2.18.65c.48.43.71 1.06.71 1.87v.84c0 .81-.24 1.44-.71 1.87-.48.43-1.2.65-2.18.65z"/><path d="m1595.88 128.35c-1.65 0-3.08-.29-4.28-.86-1.21-.57-2.2-1.47-2.98-2.69s-1.36-2.79-1.72-4.7c-.36-1.92-.55-4.22-.55-6.91s.18-4.99.55-6.91c.36-1.92.94-3.49 1.72-4.7.78-1.22 1.78-2.11 2.98-2.69 1.2-.57 2.63-.86 4.28-.86s3.08.29 4.29.86c1.2.57 2.19 1.47 2.96 2.69s1.34 2.79 1.72 4.7c.38 1.92.57 4.22.57 6.91s-.19 4.99-.57 6.91-.95 3.49-1.72 4.7c-.77 1.22-1.76 2.11-2.96 2.69-1.21.57-2.64.86-4.29.86zm0-3.82c1.76 0 3-.59 3.72-1.79.71-1.19 1.07-3.02 1.07-5.48v-8.15c0-2.46-.36-4.29-1.07-5.48s-1.95-1.79-3.72-1.79c-1.76 0-3 .6-3.72 1.79-.71 1.19-1.07 3.02-1.07 5.48v8.15c0 2.46.36 4.29 1.07 5.48.72 1.19 1.96 1.79 3.72 1.79z"/><path d="m1626.5 102.35h-11.68l-.71 10.84h.55c.34-1.18.95-2.13 1.85-2.86.89-.73 2.1-1.09 3.61-1.09 2.38 0 4.28.75 5.71 2.25s2.14 3.8 2.14 6.91c0 3.22-.81 5.68-2.44 7.39-1.62 1.71-3.98 2.56-7.06 2.56-1.99 0-3.77-.46-5.33-1.36-1.57-.91-2.77-2.19-3.61-3.84l3.28-2.52c.64 1.26 1.43 2.22 2.35 2.88s2.04.99 3.36.99c3.16 0 4.75-1.74 4.75-5.21v-1.09c0-3.47-1.58-5.21-4.75-5.21-1.79 0-3.26.78-4.41 2.35l-3.78-.5.97-16.3h15.2z"/><path d="m1450.06 176.35c-1.65 0-3.08-.29-4.28-.86-1.21-.57-2.2-1.47-2.98-2.69-.79-1.22-1.36-2.79-1.72-4.7-.36-1.92-.54-4.22-.54-6.91s.18-4.99.54-6.91.94-3.49 1.72-4.7c.78-1.22 1.78-2.11 2.98-2.69 1.2-.57 2.63-.86 4.28-.86s3.08.29 4.28.86 2.19 1.47 2.96 2.69 1.34 2.79 1.72 4.7c.38 1.92.57 4.22.57 6.91s-.19 4.99-.57 6.91-.95 3.49-1.72 4.7c-.77 1.22-1.76 2.11-2.96 2.69s-2.63.86-4.28.86zm0-3.82c1.76 0 3-.59 3.72-1.79.71-1.19 1.07-3.02 1.07-5.48v-8.15c0-2.46-.36-4.29-1.07-5.48s-1.95-1.79-3.72-1.79-3 .6-3.72 1.79c-.71 1.19-1.07 3.02-1.07 5.48v8.15c0 2.46.36 4.29 1.07 5.48.72 1.19 1.95 1.79 3.72 1.79z"/><path d="m1466.94 176.31c-.98 0-1.71-.22-2.18-.65-.48-.43-.71-1.06-.71-1.87v-.84c0-.81.24-1.43.71-1.87.48-.43 1.2-.65 2.18-.65s1.71.22 2.18.65.71 1.06.71 1.87v.84c0 .81-.24 1.44-.71 1.87s-1.2.65-2.18.65z"/><path d="m1483.83 176.35c-1.65 0-3.08-.29-4.28-.86-1.21-.57-2.2-1.47-2.98-2.69-.79-1.22-1.36-2.79-1.72-4.7-.36-1.92-.54-4.22-.54-6.91s.18-4.99.54-6.91.94-3.49 1.72-4.7c.78-1.22 1.78-2.11 2.98-2.69 1.2-.57 2.63-.86 4.28-.86s3.08.29 4.28.86 2.19 1.47 2.96 2.69 1.34 2.79 1.72 4.7c.38 1.92.57 4.22.57 6.91s-.19 4.99-.57 6.91-.95 3.49-1.72 4.7c-.77 1.22-1.76 2.11-2.96 2.69s-2.63.86-4.28.86zm0-3.82c1.76 0 3-.59 3.72-1.79.71-1.19 1.07-3.02 1.07-5.48v-8.15c0-2.46-.36-4.29-1.07-5.48s-1.95-1.79-3.72-1.79-3 .6-3.72 1.79c-.71 1.19-1.07 3.02-1.07 5.48v8.15c0 2.46.36 4.29 1.07 5.48s1.95 1.79 3.72 1.79z"/><path d="m1514.44 150.35h-11.68l-.71 10.84h.54c.34-1.18.95-2.13 1.85-2.86s2.1-1.09 3.61-1.09c2.38 0 4.28.75 5.71 2.25s2.14 3.8 2.14 6.91c0 3.22-.81 5.68-2.44 7.39-1.62 1.71-3.98 2.56-7.06 2.56-1.99 0-3.77-.46-5.33-1.36-1.57-.91-2.77-2.19-3.61-3.84l3.28-2.52c.64 1.26 1.43 2.22 2.35 2.88s2.04.99 3.36.99c3.16 0 4.75-1.74 4.75-5.21v-1.09c0-3.47-1.58-5.21-4.75-5.21-1.79 0-3.26.78-4.41 2.35l-3.78-.5.97-16.3h15.2v3.81z"/><path d="m1529.02 165.26v-4.41h10.58v4.41z"/><path d="m1562.11 176.35c-1.65 0-3.08-.29-4.28-.86-1.21-.57-2.2-1.47-2.98-2.69s-1.36-2.79-1.72-4.7c-.36-1.92-.55-4.22-.55-6.91s.18-4.99.55-6.91c.36-1.92.94-3.49 1.72-4.7.78-1.22 1.78-2.11 2.98-2.69 1.2-.57 2.63-.86 4.28-.86s3.08.29 4.29.86c1.2.57 2.19 1.47 2.96 2.69s1.34 2.79 1.72 4.7c.38 1.92.57 4.22.57 6.91s-.19 4.99-.57 6.91-.95 3.49-1.72 4.7c-.77 1.22-1.76 2.11-2.96 2.69-1.21.57-2.64.86-4.29.86zm0-3.82c1.76 0 3-.59 3.72-1.79.71-1.19 1.07-3.02 1.07-5.48v-8.15c0-2.46-.36-4.29-1.07-5.48s-1.95-1.79-3.72-1.79c-1.76 0-3 .6-3.72 1.79-.71 1.19-1.07 3.02-1.07 5.48v8.15c0 2.46.36 4.29 1.07 5.48.72 1.19 1.96 1.79 3.72 1.79z"/><path d="m1579 176.31c-.98 0-1.71-.22-2.18-.65s-.71-1.06-.71-1.87v-.84c0-.81.24-1.43.71-1.87.48-.43 1.2-.65 2.18-.65s1.71.22 2.18.65c.48.43.71 1.06.71 1.87v.84c0 .81-.24 1.44-.71 1.87-.48.43-1.2.65-2.18.65z"/><path d="m1587.73 175.85v-3.82h7.01v-21.43l-6.55 4.24-1.85-3.11 8.06-5.21h4.7v25.49h6.3v3.82h-17.67z"/><path d="m1450.06 224.35c-1.65 0-3.08-.29-4.28-.86-1.21-.57-2.2-1.47-2.98-2.69-.79-1.22-1.36-2.79-1.72-4.7-.36-1.92-.54-4.22-.54-6.91s.18-4.99.54-6.91.94-3.49 1.72-4.7c.78-1.22 1.78-2.11 2.98-2.69 1.2-.57 2.63-.86 4.28-.86s3.08.29 4.28.86 2.19 1.47 2.96 2.69 1.34 2.79 1.72 4.7c.38 1.92.57 4.22.57 6.91s-.19 4.99-.57 6.91-.95 3.49-1.72 4.7c-.77 1.22-1.76 2.11-2.96 2.69s-2.63.86-4.28.86zm0-3.82c1.76 0 3-.59 3.72-1.79.71-1.19 1.07-3.02 1.07-5.48v-8.15c0-2.46-.36-4.29-1.07-5.48s-1.95-1.79-3.72-1.79-3 .6-3.72 1.79c-.71 1.19-1.07 3.02-1.07 5.48v8.15c0 2.46.36 4.29 1.07 5.48.72 1.19 1.95 1.79 3.72 1.79z"/><path d="m1466.94 224.31c-.98 0-1.71-.22-2.18-.65-.48-.43-.71-1.06-.71-1.87v-.84c0-.81.24-1.43.71-1.87.48-.43 1.2-.65 2.18-.65s1.71.22 2.18.65.71 1.06.71 1.87v.84c0 .81-.24 1.44-.71 1.87s-1.2.65-2.18.65z"/><path d="m1475.68 223.85v-3.82h7.01v-21.43l-6.55 4.24-1.85-3.11 8.06-5.21h4.7v25.49h6.3v3.82h-17.67z"/><path d="m1506.34 213.26v-4.41h10.58v4.41z"/><path d="m1539.43 224.35c-1.65 0-3.08-.29-4.28-.86-1.21-.57-2.2-1.47-2.98-2.69s-1.36-2.79-1.72-4.7c-.36-1.92-.55-4.22-.55-6.91s.18-4.99.55-6.91c.36-1.92.94-3.49 1.72-4.7.78-1.22 1.78-2.11 2.98-2.69 1.2-.57 2.63-.86 4.28-.86s3.08.29 4.29.86c1.2.57 2.19 1.47 2.96 2.69s1.34 2.79 1.72 4.7c.38 1.92.57 4.22.57 6.91s-.19 4.99-.57 6.91-.95 3.49-1.72 4.7c-.77 1.22-1.76 2.11-2.96 2.69-1.21.57-2.64.86-4.29.86zm0-3.82c1.76 0 3-.59 3.72-1.79.71-1.19 1.07-3.02 1.07-5.48v-8.15c0-2.46-.36-4.29-1.07-5.48s-1.95-1.79-3.72-1.79c-1.76 0-3 .6-3.72 1.79-.71 1.19-1.07 3.02-1.07 5.48v8.15c0 2.46.36 4.29 1.07 5.48.72 1.19 1.96 1.79 3.72 1.79z"/><path d="m1556.32 224.31c-.98 0-1.71-.22-2.18-.65s-.71-1.06-.71-1.87v-.84c0-.81.24-1.43.71-1.87.48-.43 1.2-.65 2.18-.65s1.71.22 2.18.65c.48.43.71 1.06.71 1.87v.84c0 .81-.24 1.44-.71 1.87-.48.43-1.2.65-2.18.65z"/><path d="m1581.14 198.35h-11.68l-.71 10.84h.55c.34-1.18.95-2.13 1.85-2.86.89-.73 2.1-1.09 3.61-1.09 2.38 0 4.28.75 5.71 2.25s2.14 3.8 2.14 6.91c0 3.22-.81 5.68-2.44 7.39-1.62 1.71-3.98 2.56-7.06 2.56-1.99 0-3.77-.46-5.33-1.36-1.57-.91-2.77-2.19-3.61-3.84l3.28-2.52c.64 1.26 1.43 2.22 2.35 2.88s2.04.99 3.36.99c3.16 0 4.75-1.74 4.75-5.21v-1.09c0-3.47-1.58-5.21-4.75-5.21-1.79 0-3.26.78-4.41 2.35l-3.78-.5.97-16.3h15.2z"/><path d="m1450.06 272.35c-1.65 0-3.08-.29-4.28-.86-1.21-.57-2.2-1.47-2.98-2.69-.79-1.22-1.36-2.79-1.72-4.7-.36-1.92-.54-4.22-.54-6.91s.18-4.99.54-6.91.94-3.49 1.72-4.7c.78-1.22 1.78-2.11 2.98-2.69 1.2-.57 2.63-.86 4.28-.86s3.08.29 4.28.86 2.19 1.47 2.96 2.69 1.34 2.79 1.72 4.7c.38 1.92.57 4.22.57 6.91s-.19 4.99-.57 6.91-.95 3.49-1.72 4.7c-.77 1.22-1.76 2.11-2.96 2.69s-2.63.86-4.28.86zm0-3.82c1.76 0 3-.59 3.72-1.79.71-1.19 1.07-3.02 1.07-5.48v-8.15c0-2.46-.36-4.29-1.07-5.48s-1.95-1.79-3.72-1.79-3 .6-3.72 1.79c-.71 1.19-1.07 3.02-1.07 5.48v8.15c0 2.46.36 4.29 1.07 5.48.72 1.19 1.95 1.79 3.72 1.79z"/><path d="m1466.94 272.31c-.98 0-1.71-.22-2.18-.65-.48-.43-.71-1.06-.71-1.87v-.84c0-.81.24-1.43.71-1.87.48-.43 1.2-.65 2.18-.65s1.71.22 2.18.65.71 1.06.71 1.87v.84c0 .81-.24 1.44-.71 1.87s-1.2.65-2.18.65z"/><path d="m1491.76 246.35h-11.68l-.71 10.84h.54c.34-1.18.95-2.13 1.85-2.86s2.1-1.09 3.61-1.09c2.38 0 4.28.75 5.71 2.25s2.14 3.8 2.14 6.91c0 3.22-.81 5.68-2.44 7.39-1.62 1.71-3.98 2.56-7.06 2.56-1.99 0-3.77-.46-5.33-1.36-1.57-.91-2.77-2.19-3.61-3.84l3.28-2.52c.64 1.26 1.43 2.22 2.35 2.88s2.04.99 3.36.99c3.16 0 4.75-1.74 4.75-5.21v-1.09c0-3.47-1.58-5.21-4.75-5.21-1.79 0-3.26.78-4.41 2.35l-3.78-.5.97-16.3h15.2v3.81z"/><path d="m1506.34 261.26v-4.41h10.58v4.41z"/><path d="m1531.28 271.85v-3.82h7.01v-21.43l-6.55 4.24-1.85-3.11 8.06-5.21h4.7v25.49h6.3v3.82h-17.67z"/><path d="m1556.32 272.31c-.98 0-1.71-.22-2.18-.65s-.71-1.06-.71-1.87v-.84c0-.81.24-1.43.71-1.87.48-.43 1.2-.65 2.18-.65s1.71.22 2.18.65c.48.43.71 1.06.71 1.87v.84c0 .81-.24 1.44-.71 1.87-.48.43-1.2.65-2.18.65z"/><path d="m1573.2 272.35c-1.65 0-3.08-.29-4.28-.86-1.21-.57-2.2-1.47-2.98-2.69s-1.36-2.79-1.72-4.7c-.36-1.92-.55-4.22-.55-6.91s.18-4.99.55-6.91c.36-1.92.94-3.49 1.72-4.7.78-1.22 1.78-2.11 2.98-2.69 1.2-.57 2.63-.86 4.28-.86s3.08.29 4.29.86c1.2.57 2.19 1.47 2.96 2.69s1.34 2.79 1.72 4.7c.38 1.92.57 4.22.57 6.91s-.19 4.99-.57 6.91-.95 3.49-1.72 4.7c-.77 1.22-1.76 2.11-2.96 2.69-1.21.57-2.64.86-4.29.86zm0-3.82c1.76 0 3-.59 3.72-1.79.71-1.19 1.07-3.02 1.07-5.48v-8.15c0-2.46-.36-4.29-1.07-5.48s-1.95-1.79-3.72-1.79c-1.76 0-3 .6-3.72 1.79-.71 1.19-1.07 3.02-1.07 5.48v8.15c0 2.46.36 4.29 1.07 5.48.72 1.19 1.96 1.79 3.72 1.79z"/><path d="m1441.91 319.85v-3.82h7.01v-21.43l-6.55 4.24-1.85-3.11 8.06-5.21h4.7v25.49h6.3v3.82h-17.67z"/><path d="m1466.94 320.31c-.98 0-1.71-.22-2.18-.65-.48-.43-.71-1.06-.71-1.87v-.84c0-.81.24-1.43.71-1.87.48-.43 1.2-.65 2.18-.65s1.71.22 2.18.65.71 1.06.71 1.87v.84c0 .81-.24 1.44-.71 1.87s-1.2.65-2.18.65z"/><path d="m1483.83 320.35c-1.65 0-3.08-.29-4.28-.86-1.21-.57-2.2-1.47-2.98-2.69-.79-1.22-1.36-2.79-1.72-4.7-.36-1.92-.54-4.22-.54-6.91s.18-4.99.54-6.91.94-3.49 1.72-4.7c.78-1.22 1.78-2.11 2.98-2.69 1.2-.57 2.63-.86 4.28-.86s3.08.29 4.28.86 2.19 1.47 2.96 2.69 1.34 2.79 1.72 4.7c.38 1.92.57 4.22.57 6.91s-.19 4.99-.57 6.91-.95 3.49-1.72 4.7c-.77 1.22-1.76 2.11-2.96 2.69s-2.63.86-4.28.86zm0-3.82c1.76 0 3-.59 3.72-1.79.71-1.19 1.07-3.02 1.07-5.48v-8.15c0-2.46-.36-4.29-1.07-5.48s-1.95-1.79-3.72-1.79-3 .6-3.72 1.79c-.71 1.19-1.07 3.02-1.07 5.48v8.15c0 2.46.36 4.29 1.07 5.48s1.95 1.79 3.72 1.79z"/><path d="m1506.34 309.26v-4.41h10.58v4.41z"/><path d="m1547.37 294.35h-11.68l-.71 10.84h.55c.34-1.18.95-2.13 1.85-2.86.89-.73 2.1-1.09 3.61-1.09 2.38 0 4.28.75 5.71 2.25s2.14 3.8 2.14 6.91c0 3.22-.81 5.68-2.44 7.39-1.62 1.71-3.98 2.56-7.06 2.56-1.99 0-3.77-.46-5.33-1.36-1.57-.91-2.77-2.19-3.61-3.84l3.28-2.52c.64 1.26 1.43 2.22 2.35 2.88s2.04.99 3.36.99c3.16 0 4.75-1.74 4.75-5.21v-1.09c0-3.47-1.58-5.21-4.75-5.21-1.79 0-3.26.78-4.41 2.35l-3.78-.5.97-16.3h15.2z"/><path d="m1556.32 320.31c-.98 0-1.71-.22-2.18-.65s-.71-1.06-.71-1.87v-.84c0-.81.24-1.43.71-1.87.48-.43 1.2-.65 2.18-.65s1.71.22 2.18.65c.48.43.71 1.06.71 1.87v.84c0 .81-.24 1.44-.71 1.87-.48.43-1.2.65-2.18.65z"/><path d="m1573.2 320.35c-1.65 0-3.08-.29-4.28-.86-1.21-.57-2.2-1.47-2.98-2.69s-1.36-2.79-1.72-4.7c-.36-1.92-.55-4.22-.55-6.91s.18-4.99.55-6.91c.36-1.92.94-3.49 1.72-4.7.78-1.22 1.78-2.11 2.98-2.69 1.2-.57 2.63-.86 4.28-.86s3.08.29 4.29.86c1.2.57 2.19 1.47 2.96 2.69s1.34 2.79 1.72 4.7c.38 1.92.57 4.22.57 6.91s-.19 4.99-.57 6.91-.95 3.49-1.72 4.7c-.77 1.22-1.76 2.11-2.96 2.69-1.21.57-2.64.86-4.29.86zm0-3.82c1.76 0 3-.59 3.72-1.79.71-1.19 1.07-3.02 1.07-5.48v-8.15c0-2.46-.36-4.29-1.07-5.48s-1.95-1.79-3.72-1.79c-1.76 0-3 .6-3.72 1.79-.71 1.19-1.07 3.02-1.07 5.48v8.15c0 2.46.36 4.29 1.07 5.48.72 1.19 1.96 1.79 3.72 1.79z"/><path d="m1457.83 354.15v3.53l-15.54 10.54v-4.62l11.26-7.43v-.5l-11.26-7.48v-4.62z"/><path d="m1480.68 342.35h-11.68l-.71 10.84h.54c.34-1.18.95-2.13 1.85-2.86s2.1-1.09 3.61-1.09c2.38 0 4.28.75 5.71 2.25s2.14 3.8 2.14 6.91c0 3.22-.81 5.68-2.44 7.39-1.62 1.71-3.98 2.56-7.06 2.56-1.99 0-3.77-.46-5.33-1.37-1.57-.91-2.77-2.19-3.61-3.84l3.28-2.52c.64 1.26 1.43 2.22 2.35 2.88s2.04.99 3.36.99c3.16 0 4.75-1.74 4.75-5.21v-1.09c0-3.47-1.58-5.21-4.75-5.21-1.79 0-3.26.78-4.41 2.35l-3.78-.5.97-16.3h15.2v3.82z"/><path d="m1489.62 368.31c-.98 0-1.71-.22-2.18-.65-.48-.43-.71-1.06-.71-1.87v-.84c0-.81.24-1.43.71-1.87.48-.43 1.2-.65 2.18-.65s1.71.22 2.18.65.71 1.06.71 1.87v.84c0 .81-.24 1.43-.71 1.87-.47.43-1.2.65-2.18.65z"/><path d="m1506.51 368.35c-1.65 0-3.08-.29-4.28-.86-1.21-.57-2.2-1.47-2.98-2.69-.79-1.22-1.36-2.79-1.72-4.7s-.54-4.22-.54-6.91.18-4.99.54-6.91.94-3.49 1.72-4.7c.78-1.22 1.78-2.11 2.98-2.69 1.2-.57 2.63-.86 4.28-.86s3.08.29 4.28.86 2.19 1.47 2.96 2.69 1.34 2.79 1.72 4.7c.38 1.92.57 4.22.57 6.91s-.19 4.99-.57 6.91-.95 3.49-1.72 4.7-1.76 2.11-2.96 2.69c-1.2.57-2.63.86-4.28.86zm0-3.82c1.76 0 3-.59 3.72-1.78.71-1.19 1.07-3.02 1.07-5.48v-8.15c0-2.46-.36-4.29-1.07-5.48s-1.95-1.79-3.72-1.79-3 .6-3.72 1.79c-.71 1.19-1.07 3.02-1.07 5.48v8.15c0 2.46.36 4.29 1.07 5.48s1.95 1.78 3.72 1.78z"/><path d="m454.82 279.94v-25.13h3.82v21.74h9.14v3.38h-12.96z"/><path d="m477.68 280.37c-1.2 0-2.27-.19-3.22-.58-.95-.38-1.76-.97-2.45-1.76s-1.21-1.81-1.57-3.04c-.36-1.24-.54-2.71-.54-4.41s.18-3.17.54-4.41.88-2.25 1.57-3.04 1.5-1.38 2.45-1.76 2.02-.58 3.22-.58c1.18 0 2.24.19 3.2.58.96.38 1.78.97 2.47 1.76.68.79 1.21 1.81 1.57 3.04.36 1.24.54 2.71.54 4.41s-.18 3.17-.54 4.41-.88 2.25-1.57 3.04c-.68.79-1.51 1.38-2.47 1.76-.95.39-2.02.58-3.2.58zm0-3.09c1.25 0 2.2-.37 2.86-1.12.66-.74.99-1.87.99-3.38v-4.39c0-1.51-.33-2.64-.99-3.38s-1.61-1.12-2.86-1.12-2.2.37-2.86 1.12c-.66.74-.99 1.87-.99 3.38v4.39c0 1.51.33 2.64.99 3.38s1.62 1.12 2.86 1.12z"/><path d="m494.78 280.37c-1.56 0-2.91-.29-4.05-.88s-2.13-1.44-2.97-2.57l2.38-2.19c.62.9 1.31 1.57 2.05 2.02s1.62.67 2.63.67c.98 0 1.74-.22 2.27-.67s.79-1.11.79-1.98c0-.68-.17-1.22-.5-1.64-.34-.41-.95-.7-1.84-.87l-1.62-.29c-1.9-.33-3.29-.92-4.18-1.76s-1.33-2.08-1.33-3.74c0-1.94.56-3.37 1.69-4.29s2.68-1.38 4.64-1.38c1.44 0 2.67.25 3.69.74s1.91 1.2 2.68 2.14l-2.23 2.19c-.5-.7-1.11-1.23-1.82-1.58s-1.47-.53-2.29-.53c-1.87 0-2.81.86-2.81 2.58 0 .75.19 1.31.58 1.67s1 .62 1.84.76l1.66.32c1.94.34 3.33.93 4.16 1.78s1.24 2.02 1.24 3.5c0 1.89-.58 3.37-1.73 4.42s-2.79 1.58-4.93 1.58z"/><path d="m527.33 279.94-1.94-6.95h-8.46l-1.94 6.95h-3.74l7.52-25.13h4.86l7.56 25.13zm-5.19-18-.79-3.67h-.47l-.79 3.67-2.23 7.92h6.62z"/><path d="m538.13 279.94c-1.3 0-2.23-.29-2.81-.88s-.86-1.51-.86-2.75v-23h3.71v23.58h2.23v3.06h-2.27z"/><path d="m555.84 279.94c-.91 0-1.62-.25-2.12-.76s-.76-1.3-.76-2.38h-.43c-.26 1.13-.81 2-1.64 2.63-.83.62-1.84.94-3.04.94-1.78 0-3.1-.47-3.98-1.42s-1.31-2.29-1.31-4.01c0-1.87.6-3.3 1.8-4.28s2.96-1.48 5.29-1.48h3.1v-1.8c0-1.2-.26-2.08-.79-2.65-.53-.56-1.37-.85-2.52-.85-.89 0-1.65.19-2.29.58-.64.38-1.22 1.03-1.75 1.94l-2.2-2.02c.62-1.06 1.47-1.92 2.54-2.59s2.38-1.01 3.94-1.01c2.26 0 3.95.55 5.08 1.64s1.69 2.69 1.69 4.81v9.65h1.76v3.06zm-6.77-2.45c.53 0 1.01-.08 1.46-.25.44-.17.83-.4 1.15-.68.32-.29.58-.63.77-1.03s.29-.82.29-1.28v-2.59h-2.92c-2.33 0-3.49.84-3.49 2.52v.86c0 .84.25 1.46.74 1.85.49.4 1.16.6 2 .6z"/><path d="m561.71 279.94v-18.72h3.71v3.1h.43c.74-2.35 2.24-3.53 4.5-3.53 2.33 0 3.88 1.2 4.64 3.6h.4c.38-1.22 1-2.13 1.84-2.72s1.9-.88 3.17-.88c1.61 0 2.86.57 3.76 1.71s1.35 2.81 1.35 5.02v12.42h-3.71v-11.92c0-1.32-.25-2.33-.74-3.02-.49-.7-1.24-1.04-2.25-1.04-.91 0-1.7.29-2.36.88s-.99 1.41-.99 2.47v12.64h-3.71v-11.92c0-1.32-.25-2.33-.74-3.02-.49-.7-1.24-1.04-2.25-1.04-.94 0-1.73.29-2.38.88s-.97 1.41-.97 2.47v12.64h-3.7z"/><path d="m596.95 280.37c-1.2 0-2.27-.19-3.22-.58-.95-.38-1.76-.97-2.45-1.76s-1.21-1.81-1.57-3.04c-.36-1.24-.54-2.71-.54-4.41s.18-3.17.54-4.41.88-2.25 1.57-3.04 1.5-1.38 2.45-1.76 2.02-.58 3.22-.58c1.18 0 2.24.19 3.2.58.96.38 1.78.97 2.47 1.76.68.79 1.21 1.81 1.57 3.04.36 1.24.54 2.71.54 4.41s-.18 3.17-.54 4.41-.88 2.25-1.57 3.04c-.68.79-1.51 1.38-2.47 1.76-.96.39-2.02.58-3.2.58zm0-3.09c1.25 0 2.2-.37 2.86-1.12.66-.74.99-1.87.99-3.38v-4.39c0-1.51-.33-2.64-.99-3.38s-1.61-1.12-2.86-1.12-2.2.37-2.86 1.12c-.66.74-.99 1.87-.99 3.38v4.39c0 1.51.33 2.64.99 3.38s1.61 1.12 2.86 1.12z"/><path d="m614.05 280.37c-1.56 0-2.91-.29-4.05-.88s-2.13-1.44-2.97-2.57l2.38-2.19c.62.9 1.31 1.57 2.05 2.02s1.62.67 2.63.67c.98 0 1.74-.22 2.27-.67s.79-1.11.79-1.98c0-.68-.17-1.22-.5-1.64-.34-.41-.95-.7-1.84-.87l-1.62-.29c-1.9-.33-3.29-.92-4.18-1.76s-1.33-2.08-1.33-3.74c0-1.94.56-3.37 1.69-4.29s2.68-1.38 4.64-1.38c1.44 0 2.67.25 3.69.74s1.91 1.2 2.68 2.14l-2.23 2.19c-.5-.7-1.11-1.23-1.82-1.58s-1.47-.53-2.29-.53c-1.87 0-2.81.86-2.81 2.58 0 .75.19 1.31.58 1.67s1 .62 1.84.76l1.66.32c1.94.34 3.33.93 4.16 1.78s1.24 2.02 1.24 3.5c0 1.89-.58 3.37-1.73 4.42s-2.79 1.58-4.93 1.58z"/><path d="m688.29 320.37c-1.87 0-3.5-.35-4.88-1.06s-2.56-1.74-3.55-3.09l2.63-2.42c.74 1.03 1.6 1.81 2.56 2.36s2.05.82 3.28.82c2.98 0 4.46-1.36 4.46-4.08 0-1.1-.26-1.94-.79-2.52s-1.44-1.03-2.74-1.34l-2.05-.43c-2.26-.5-3.92-1.32-4.99-2.43-1.07-1.12-1.6-2.69-1.6-4.7 0-2.33.7-4.1 2.11-5.3 1.4-1.2 3.37-1.8 5.89-1.8 1.8 0 3.32.31 4.55.92 1.24.61 2.31 1.57 3.22 2.87l-2.63 2.31c-.65-.91-1.37-1.58-2.18-2.04-.8-.45-1.82-.68-3.04-.68-1.37 0-2.39.28-3.08.84-.68.56-1.03 1.48-1.03 2.77 0 1.05.27 1.84.81 2.38s1.42.95 2.65 1.23l2.05.47c1.2.26 2.22.6 3.06.99.84.4 1.53.88 2.07 1.46s.93 1.26 1.17 2.04.36 1.69.36 2.72c0 2.52-.73 4.44-2.18 5.75s-3.49 1.96-6.13 1.96z"/><path d="m712.63 319.94c-.91 0-1.62-.25-2.12-.76s-.76-1.3-.76-2.38h-.43c-.26 1.13-.81 2-1.64 2.63-.83.62-1.84.94-3.04.94-1.78 0-3.1-.47-3.98-1.42s-1.31-2.29-1.31-4.01c0-1.87.6-3.3 1.8-4.28s2.96-1.48 5.29-1.48h3.1v-1.8c0-1.2-.26-2.08-.79-2.65-.53-.56-1.37-.85-2.52-.85-.89 0-1.65.19-2.29.58-.64.38-1.22 1.03-1.75 1.94l-2.2-2.02c.62-1.06 1.47-1.92 2.54-2.59s2.38-1.01 3.94-1.01c2.26 0 3.95.55 5.08 1.64s1.69 2.69 1.69 4.81v9.65h1.76v3.06zm-6.77-2.45c.53 0 1.01-.08 1.46-.25.44-.17.83-.4 1.15-.68.32-.29.58-.63.77-1.03s.29-.82.29-1.28v-2.59h-2.92c-2.33 0-3.49.84-3.49 2.52v.86c0 .84.25 1.46.74 1.85.5.4 1.16.6 2 .6z"/><path d="m718.5 319.94v-18.72h3.71v3.1h.43c.74-2.35 2.28-3.53 4.61-3.53 1.68 0 2.98.57 3.91 1.71.92 1.14 1.39 2.81 1.39 5.02v12.42h-3.71v-11.92c0-1.32-.25-2.33-.76-3.02-.5-.7-1.3-1.04-2.38-1.04-.98 0-1.81.29-2.48.88s-1.01 1.41-1.01 2.47v12.64h-3.71z"/><path d="m742.01 319.94c-1.3 0-2.24-.29-2.83-.86-.59-.58-.88-1.51-.88-2.81v-11.99h-2.59v-3.06h1.44c.6 0 1-.14 1.21-.41.2-.28.31-.71.31-1.31v-3.38h3.35v5.11h3.49v3.06h-3.49v12.6h3.24v3.06h-3.25z"/><path d="m761.23 319.94c-.91 0-1.62-.25-2.12-.76s-.76-1.3-.76-2.38h-.43c-.26 1.13-.81 2-1.64 2.63-.83.62-1.84.94-3.04.94-1.78 0-3.1-.47-3.98-1.42s-1.31-2.29-1.31-4.01c0-1.87.6-3.3 1.8-4.28s2.96-1.48 5.29-1.48h3.1v-1.8c0-1.2-.26-2.08-.79-2.65-.53-.56-1.37-.85-2.52-.85-.89 0-1.65.19-2.29.58-.64.38-1.22 1.03-1.75 1.94l-2.2-2.02c.62-1.06 1.47-1.92 2.54-2.59s2.38-1.01 3.94-1.01c2.26 0 3.95.55 5.08 1.64s1.69 2.69 1.69 4.81v9.65h1.76v3.06zm-6.77-2.45c.53 0 1.01-.08 1.46-.25.44-.17.83-.4 1.15-.68.32-.29.58-.63.77-1.03s.29-.82.29-1.28v-2.59h-2.92c-2.33 0-3.49.84-3.49 2.52v.86c0 .84.25 1.46.74 1.85.5.4 1.16.6 2 .6z"/><path d="m774.98 319.94v-25.13h14.22v3.38h-10.4v7.34h9.22v3.31h-9.22v11.09h-3.82z"/><path d="m799.25 320.37c-1.18 0-2.26-.19-3.24-.58-.98-.38-1.82-.98-2.52-1.78s-1.24-1.82-1.64-3.04-.59-2.69-.59-4.39.18-3.17.54-4.41.88-2.25 1.57-3.04 1.5-1.38 2.45-1.76 2.02-.58 3.22-.58c2.38 0 4.23.78 5.56 2.34s2 4.04 2 7.45v.94h-11.45v1.19c0 1.49.38 2.63 1.13 3.42s1.79 1.19 3.11 1.19c1.13 0 2.06-.25 2.79-.76.73-.5 1.35-1.21 1.85-2.12l2.16 2.05c-.67 1.18-1.58 2.12-2.72 2.83-1.14.7-2.55 1.05-4.22 1.05zm-.22-16.63c-1.25 0-2.21.38-2.88 1.13-.67.76-1.01 1.89-1.01 3.4v.76h7.52v-.76c.01-3.02-1.21-4.53-3.63-4.53z"/><path d="m379.23 467.62-1.94-6.95h-8.46l-1.94 6.95h-3.74l7.52-25.13h4.86l7.56 25.13zm-5.18-18-.79-3.67h-.47l-.79 3.67-2.23 7.92h6.62z"/><path d="m390.03 467.62c-1.3 0-2.23-.29-2.81-.88s-.86-1.51-.86-2.75v-23h3.71v23.58h2.23v3.06h-2.27z"/><path d="m395.72 440.98h3.71v10.98h.43c.31-1.1.87-1.96 1.67-2.57s1.76-.92 2.86-.92c2.23 0 3.89.85 4.97 2.54s1.62 4.11 1.62 7.25-.54 5.56-1.62 7.25-2.74 2.54-4.97 2.54c-1.1 0-2.06-.31-2.86-.92s-1.36-1.47-1.67-2.57h-.43v3.06h-3.71zm7.34 23.9c1.27 0 2.26-.4 2.95-1.19.7-.79 1.04-1.91 1.04-3.35v-4.18c0-1.44-.35-2.56-1.04-3.35-.7-.79-1.68-1.19-2.95-1.19-1.06 0-1.93.28-2.61.83s-1.03 1.31-1.03 2.27v7.06c0 .96.34 1.72 1.03 2.27s1.56.83 2.61.83z"/><path d="m425.13 464.52h-.47c-.74 2.35-2.29 3.53-4.64 3.53-1.66 0-2.95-.57-3.87-1.71s-1.39-2.81-1.39-5.02v-12.42h3.71v11.92c0 2.71 1.06 4.07 3.17 4.07.96 0 1.78-.29 2.47-.88.68-.59 1.03-1.41 1.03-2.47v-12.64h3.71v18.72h-3.71v-3.1z"/><path d="m444.39 474.82v-10.26h-.43c-.31 1.13-.87 1.99-1.67 2.59s-1.76.9-2.86.9c-2.21 0-3.86-.85-4.95-2.54s-1.64-4.11-1.64-7.25.55-5.56 1.64-7.25 2.74-2.54 4.95-2.54c1.1 0 2.06.31 2.86.92s1.36 1.47 1.67 2.57h.43v-3.06h3.71v25.92zm-3.63-9.94c1.06 0 1.93-.28 2.61-.83s1.03-1.31 1.03-2.27v-7.06c0-.96-.34-1.72-1.03-2.27s-1.55-.83-2.61-.83c-1.27 0-2.26.4-2.95 1.19-.7.79-1.04 1.91-1.04 3.35v4.18c0 1.44.35 2.56 1.04 3.35s1.67 1.19 2.95 1.19z"/><path d="m463.29 464.52h-.47c-.74 2.35-2.29 3.53-4.64 3.53-1.66 0-2.95-.57-3.87-1.71s-1.39-2.81-1.39-5.02v-12.42h3.71v11.92c0 2.71 1.06 4.07 3.17 4.07.96 0 1.78-.29 2.47-.88.68-.59 1.03-1.41 1.03-2.47v-12.64h3.7v18.72h-3.71z"/><path d="m478.84 468.05c-1.18 0-2.26-.19-3.24-.58-.98-.38-1.82-.98-2.52-1.78s-1.24-1.82-1.64-3.04-.59-2.69-.59-4.39.18-3.17.54-4.41.88-2.25 1.57-3.04 1.5-1.38 2.45-1.76 2.02-.58 3.22-.58c2.38 0 4.23.78 5.56 2.34s2 4.04 2 7.45v.94h-11.45v1.19c0 1.49.38 2.63 1.13 3.42s1.79 1.19 3.11 1.19c1.13 0 2.06-.25 2.79-.76.73-.5 1.35-1.21 1.85-2.12l2.16 2.05c-.67 1.18-1.58 2.12-2.72 2.83-1.13.69-2.54 1.05-4.22 1.05zm-.21-16.63c-1.25 0-2.21.38-2.88 1.13-.67.76-1.01 1.89-1.01 3.4v.76h7.52v-.76c0-3.02-1.21-4.53-3.63-4.53z"/><path d="m490.07 467.62v-18.72h3.71v3.71h.43c.26-1.2.76-2.12 1.49-2.75.73-.64 1.66-.95 2.79-.95h.94v3.78h-1.58c-1.32 0-2.33.25-3.02.76-.7.5-1.04 1.31-1.04 2.41v11.77h-3.72z"/><path d="m513.04 474.82v-10.26h-.43c-.31 1.13-.87 1.99-1.67 2.59s-1.76.9-2.86.9c-2.21 0-3.86-.85-4.95-2.54s-1.64-4.11-1.64-7.25.55-5.56 1.64-7.25 2.74-2.54 4.95-2.54c1.1 0 2.06.31 2.86.92s1.36 1.47 1.67 2.57h.43v-3.06h3.71v25.92zm-3.63-9.94c1.06 0 1.93-.28 2.61-.83s1.03-1.31 1.03-2.27v-7.06c0-.96-.34-1.72-1.03-2.27s-1.55-.83-2.61-.83c-1.27 0-2.26.4-2.95 1.19-.7.79-1.04 1.91-1.04 3.35v4.18c0 1.44.35 2.56 1.04 3.35s1.67 1.19 2.95 1.19z"/><path d="m531.94 464.52h-.47c-.74 2.35-2.29 3.53-4.64 3.53-1.66 0-2.95-.57-3.87-1.71s-1.39-2.81-1.39-5.02v-12.42h3.71v11.92c0 2.71 1.06 4.07 3.17 4.07.96 0 1.78-.29 2.47-.88.68-.59 1.03-1.41 1.03-2.47v-12.64h3.71v18.72h-3.71v-3.1z"/><path d="m547.49 468.05c-1.18 0-2.26-.19-3.24-.58-.98-.38-1.82-.98-2.52-1.78s-1.24-1.82-1.64-3.04-.59-2.69-.59-4.39.18-3.17.54-4.41.88-2.25 1.57-3.04 1.5-1.38 2.45-1.76 2.02-.58 3.22-.58c2.38 0 4.23.78 5.56 2.34s2 4.04 2 7.45v.94h-11.45v1.19c0 1.49.38 2.63 1.13 3.42s1.79 1.19 3.11 1.19c1.13 0 2.06-.25 2.79-.76.73-.5 1.35-1.21 1.85-2.12l2.16 2.05c-.67 1.18-1.58 2.12-2.72 2.83-1.13.69-2.54 1.05-4.22 1.05zm-.21-16.63c-1.25 0-2.21.38-2.88 1.13-.67.76-1.01 1.89-1.01 3.4v.76h7.52v-.76c0-3.02-1.21-4.53-3.63-4.53z"/><path d="m634.23 889.62-1.94-6.95h-8.46l-1.94 6.95h-3.74l7.52-25.13h4.86l7.56 25.13zm-5.18-18-.79-3.67h-.47l-.79 3.67-2.23 7.92h6.62z"/><path d="m645.03 889.62c-1.3 0-2.23-.29-2.81-.88s-.86-1.51-.86-2.75v-23h3.71v23.58h2.23v3.06h-2.27z"/><path d="m662.74 889.62c-.91 0-1.62-.25-2.12-.76s-.76-1.3-.76-2.38h-.43c-.26 1.13-.81 2-1.64 2.63-.83.62-1.84.94-3.04.94-1.78 0-3.1-.47-3.98-1.42s-1.31-2.29-1.31-4.01c0-1.87.6-3.3 1.8-4.28s2.96-1.48 5.29-1.48h3.1v-1.8c0-1.2-.26-2.08-.79-2.65-.53-.56-1.37-.85-2.52-.85-.89 0-1.65.19-2.29.58-.64.38-1.22 1.03-1.75 1.94l-2.2-2.02c.62-1.06 1.47-1.92 2.54-2.59s2.38-1.01 3.94-1.01c2.26 0 3.95.54 5.08 1.64 1.13 1.09 1.69 2.7 1.69 4.81v9.65h1.76v3.06zm-6.76-2.45c.53 0 1.01-.08 1.46-.25.44-.17.83-.4 1.15-.68.32-.29.58-.63.77-1.03s.29-.82.29-1.28v-2.59h-2.92c-2.33 0-3.49.84-3.49 2.52v.86c0 .84.25 1.46.74 1.85.49.4 1.16.6 2 .6z"/><path d="m668.61 889.62v-18.72h3.71v3.1h.43c.74-2.35 2.24-3.53 4.5-3.53 2.33 0 3.88 1.2 4.64 3.6h.4c.38-1.22 1-2.13 1.84-2.72s1.9-.88 3.17-.88c1.61 0 2.86.57 3.76 1.71s1.35 2.81 1.35 5.02v12.42h-3.71v-11.92c0-1.32-.25-2.33-.74-3.02-.49-.7-1.24-1.04-2.25-1.04-.91 0-1.7.29-2.36.88s-.99 1.41-.99 2.47v12.64h-3.71v-11.93c0-1.32-.25-2.33-.74-3.02-.49-.7-1.24-1.04-2.25-1.04-.94 0-1.73.29-2.38.88s-.97 1.41-.97 2.47v12.64h-3.7z"/><path d="m703.85 890.05c-1.2 0-2.27-.19-3.22-.58-.95-.38-1.76-.97-2.45-1.76s-1.21-1.81-1.57-3.04-.54-2.71-.54-4.41.18-3.17.54-4.41.88-2.25 1.57-3.04c.68-.79 1.5-1.38 2.45-1.76s2.02-.58 3.22-.58c1.18 0 2.24.19 3.2.58.96.38 1.78.97 2.47 1.76.68.79 1.21 1.81 1.57 3.04.36 1.24.54 2.71.54 4.41 0 1.71-.18 3.17-.54 4.41s-.88 2.25-1.57 3.04c-.68.79-1.51 1.38-2.47 1.76-.95.39-2.02.58-3.2.58zm0-3.1c1.25 0 2.2-.37 2.86-1.12.66-.74.99-1.87.99-3.38v-4.39c0-1.51-.33-2.64-.99-3.38s-1.61-1.12-2.86-1.12-2.2.37-2.86 1.12c-.66.74-.99 1.87-.99 3.38v4.39c0 1.51.33 2.64.99 3.38.66.75 1.62 1.12 2.86 1.12z"/><path d="m730.39 891.47c0 .98-.16 1.83-.47 2.55s-.82 1.31-1.51 1.79c-.7.48-1.59.84-2.68 1.08s-2.43.36-4.01.36c-1.42 0-2.62-.1-3.6-.3s-1.78-.5-2.39-.88-1.05-.85-1.31-1.42c-.26-.56-.4-1.2-.4-1.92 0-.96.26-1.72.77-2.28.52-.56 1.23-.91 2.14-1.06v-.61c-.67-.24-1.17-.6-1.49-1.08s-.49-1.06-.49-1.73c0-.84.27-1.52.81-2.03s1.27-.85 2.18-.99v-.43c-2.02-1.04-3.02-2.91-3.02-5.63 0-2.07.57-3.66 1.71-4.77s2.84-1.66 5.09-1.66c1.1 0 2.11.18 3.02.54v-.61c0-1.54.74-2.31 2.23-2.31h2.59v2.95h-3.46v.83c.77.48 1.36 1.15 1.78 2s.63 1.86.63 3.01c0 2.07-.57 3.65-1.71 4.75-1.14 1.09-2.84 1.64-5.09 1.64-.43 0-.85-.02-1.24-.07s-.77-.11-1.13-.18c-.48.14-.84.39-1.08.74s-.36.73-.36 1.13c0 .48.16.84.49 1.08.32.24.86.36 1.6.36h4.5c2.14 0 3.65.44 4.55 1.33.9.9 1.35 2.17 1.35 3.82zm-3.49.38c0-.7-.23-1.24-.68-1.62-.46-.38-1.22-.58-2.3-.58h-5.76c-.72.5-1.08 1.25-1.08 2.23 0 .84.27 1.49.81 1.96s1.46.7 2.75.7h2.23c1.42 0 2.44-.22 3.08-.67.63-.43.95-1.11.95-2.02zm-5.19-11.27c2.14 0 3.2-1.06 3.2-3.17v-1.08c0-2.11-1.07-3.17-3.2-3.17-2.14 0-3.2 1.06-3.2 3.17v1.08c0 2.11 1.07 3.17 3.2 3.17z"/><path d="m739.39 890.05c-1.2 0-2.27-.19-3.22-.58-.95-.38-1.76-.97-2.45-1.76s-1.21-1.81-1.57-3.04-.54-2.71-.54-4.41.18-3.17.54-4.41.88-2.25 1.57-3.04c.68-.79 1.5-1.38 2.45-1.76s2.02-.58 3.22-.58c1.18 0 2.24.19 3.2.58.96.38 1.78.97 2.47 1.76.68.79 1.21 1.81 1.57 3.04.36 1.24.54 2.71.54 4.41 0 1.71-.18 3.17-.54 4.41s-.88 2.25-1.57 3.04c-.68.79-1.51 1.38-2.47 1.76-.96.39-2.03.58-3.2.58zm0-3.1c1.25 0 2.2-.37 2.86-1.12.66-.74.99-1.87.99-3.38v-4.39c0-1.51-.33-2.64-.99-3.38s-1.61-1.12-2.86-1.12-2.2.37-2.86 1.12c-.66.74-.99 1.87-.99 3.38v4.39c0 1.51.33 2.64.99 3.38.66.75 1.61 1.12 2.86 1.12z"/><path d="m751.02 889.62v-18.72h3.71v3.71h.43c.26-1.2.76-2.12 1.49-2.75s1.66-.95 2.79-.95h.94v3.78h-1.58c-1.32 0-2.33.25-3.02.76-.7.5-1.04 1.31-1.04 2.41v11.77h-3.72z"/><path d="m773.98 886.56h-.43c-.31 1.1-.87 1.96-1.67 2.57s-1.76.92-2.86.92c-2.23 0-3.89-.85-4.97-2.54s-1.62-4.11-1.62-7.25.54-5.56 1.62-7.25 2.74-2.54 4.97-2.54c1.1 0 2.06.3 2.86.92.8.61 1.36 1.47 1.67 2.57h.43v-10.98h3.71v26.64h-3.71zm-3.63.32c1.06 0 1.93-.28 2.61-.83s1.03-1.31 1.03-2.27v-7.06c0-.96-.34-1.72-1.03-2.27-.68-.55-1.55-.83-2.61-.83-1.27 0-2.26.4-2.95 1.19-.7.79-1.04 1.91-1.04 3.35v4.18c0 1.44.35 2.56 1.04 3.35s1.67 1.19 2.95 1.19z"/><path d="m789.32 890.05c-1.2 0-2.27-.19-3.22-.58-.95-.38-1.76-.97-2.45-1.76s-1.21-1.81-1.57-3.04-.54-2.71-.54-4.41.18-3.17.54-4.41.88-2.25 1.57-3.04c.68-.79 1.5-1.38 2.45-1.76s2.02-.58 3.22-.58c1.18 0 2.24.19 3.2.58.96.38 1.78.97 2.47 1.76.68.79 1.21 1.81 1.57 3.04.36 1.24.54 2.71.54 4.41 0 1.71-.18 3.17-.54 4.41s-.88 2.25-1.57 3.04c-.68.79-1.51 1.38-2.47 1.76-.96.39-2.03.58-3.2.58zm0-3.1c1.25 0 2.2-.37 2.86-1.12.66-.74.99-1.87.99-3.38v-4.39c0-1.51-.33-2.64-.99-3.38s-1.61-1.12-2.86-1.12-2.2.37-2.86 1.12c-.66.74-.99 1.87-.99 3.38v4.39c0 1.51.33 2.64.99 3.38.66.75 1.61 1.12 2.86 1.12z"/><path d="m933.3 884.28h-3.82v-25.13h9.94c2.16 0 3.79.64 4.88 1.93s1.64 3.13 1.64 5.53c0 1.94-.36 3.52-1.08 4.72s-1.8 2-3.24 2.41l4.79 10.55h-4.25l-4.36-10.26h-4.5zm5.8-13.46c.91 0 1.6-.23 2.07-.7s.7-1.22.7-2.28v-2.33c0-1.05-.23-1.81-.7-2.28s-1.16-.7-2.07-.7h-5.8v8.28h5.8z"/><path d="m956.81 884.71c-1.2 0-2.27-.19-3.22-.58-.95-.38-1.76-.97-2.45-1.76s-1.21-1.81-1.57-3.04c-.36-1.24-.54-2.71-.54-4.41 0-1.71.18-3.17.54-4.41s.88-2.25 1.57-3.04c.68-.79 1.5-1.38 2.45-1.76s2.02-.58 3.22-.58c1.18 0 2.24.19 3.2.58.96.38 1.78.97 2.47 1.76.68.79 1.21 1.81 1.57 3.04s.54 2.71.54 4.41-.18 3.17-.54 4.41-.88 2.25-1.57 3.04c-.68.79-1.51 1.38-2.47 1.76-.95.39-2.02.58-3.2.58zm0-3.09c1.25 0 2.2-.37 2.86-1.12s.99-1.87.99-3.38v-4.39c0-1.51-.33-2.64-.99-3.38s-1.62-1.12-2.86-1.12c-1.25 0-2.2.37-2.86 1.12s-.99 1.87-.99 3.38v4.39c0 1.51.33 2.64.99 3.38s1.62 1.12 2.86 1.12z"/><path d="m973.91 884.71c-1.56 0-2.91-.29-4.05-.88s-2.13-1.44-2.97-2.57l2.38-2.19c.62.9 1.31 1.57 2.05 2.02s1.62.67 2.63.67c.98 0 1.74-.22 2.27-.67s.79-1.11.79-1.98c0-.68-.17-1.22-.5-1.64-.34-.41-.95-.7-1.84-.87l-1.62-.29c-1.9-.33-3.29-.92-4.18-1.76s-1.33-2.08-1.33-3.74c0-1.94.56-3.37 1.69-4.29s2.68-1.38 4.64-1.38c1.44 0 2.67.25 3.69.74s1.91 1.2 2.68 2.14l-2.23 2.19c-.5-.7-1.11-1.23-1.82-1.58s-1.47-.53-2.29-.53c-1.87 0-2.81.86-2.81 2.58 0 .75.19 1.31.58 1.67.38.36 1 .62 1.84.76l1.66.32c1.94.34 3.33.93 4.16 1.78s1.24 2.02 1.24 3.5c0 1.89-.58 3.37-1.73 4.42-1.15 1.06-2.79 1.58-4.93 1.58z"/><path d="m982.37 865.56h3.6l1.84 8.53 1.15 6.84h.43l1.37-6.84 2.02-8.53h3.89l2.05 8.53 1.37 6.84h.4l1.15-6.84 1.91-8.53h3.42l-4.5 18.72h-4.36l-2.2-9.11-1.01-6.05h-.43l-1.04 6.05-2.2 9.11h-4.36z"/><path d="m1016.9 884.71c-1.18 0-2.26-.19-3.24-.58-.98-.38-1.82-.98-2.52-1.78s-1.24-1.82-1.64-3.04-.59-2.69-.59-4.39c0-1.71.18-3.17.54-4.41s.88-2.25 1.57-3.04c.68-.79 1.5-1.38 2.45-1.76s2.02-.58 3.22-.58c2.38 0 4.23.78 5.56 2.34s2 4.04 2 7.45v.94h-11.45v1.19c0 1.49.38 2.63 1.13 3.42.76.79 1.79 1.19 3.11 1.19 1.13 0 2.06-.25 2.79-.76.73-.5 1.35-1.21 1.85-2.12l2.16 2.05c-.67 1.18-1.58 2.12-2.72 2.83s-2.54 1.05-4.22 1.05zm-.22-16.63c-1.25 0-2.21.38-2.88 1.13s-1.01 1.89-1.01 3.4v.76h7.52v-.76c.01-3.01-1.2-4.53-3.63-4.53z"/><path d="m1031.8 884.28c-1.3 0-2.23-.29-2.81-.88s-.86-1.51-.86-2.75v-23h3.71v23.58h2.23v3.06h-2.27z"/><path d="m1040.8 884.28c-1.3 0-2.23-.29-2.81-.88s-.86-1.51-.86-2.75v-23h3.71v23.58h2.23v3.06h-2.27z"/><path d="m271.12 886.28v-3.28h6.01v-18.36l-5.62 3.64-1.58-2.66 6.91-4.46h4.03v21.85h5.4v3.28h-15.15z"/><path d="m297.54 886.71c-1.42 0-2.64-.25-3.67-.74s-1.88-1.26-2.56-2.3c-.67-1.04-1.16-2.39-1.48-4.03-.31-1.64-.47-3.62-.47-5.92s.16-4.28.47-5.92.8-2.99 1.48-4.03c.67-1.04 1.52-1.81 2.56-2.3 1.03-.49 2.26-.74 3.67-.74 1.42 0 2.64.25 3.67.74s1.88 1.26 2.54 2.3 1.15 2.39 1.48 4.03c.32 1.64.49 3.62.49 5.92s-.16 4.28-.49 5.92c-.32 1.64-.82 2.99-1.48 4.03s-1.51 1.81-2.54 2.3c-1.03.5-2.25.74-3.67.74zm0-3.27c1.51 0 2.57-.51 3.19-1.53.61-1.02.92-2.59.92-4.7v-6.98c0-2.11-.31-3.68-.92-4.7s-1.67-1.53-3.19-1.53c-1.51 0-2.57.51-3.19 1.53-.61 1.02-.92 2.59-.92 4.7v6.98c0 2.11.31 3.68.92 4.7.62 1.02 1.68 1.53 3.19 1.53z"/><path d="m316.98 886.71c-1.42 0-2.64-.25-3.67-.74s-1.88-1.26-2.56-2.3c-.67-1.04-1.16-2.39-1.48-4.03-.31-1.64-.47-3.62-.47-5.92s.16-4.28.47-5.92.8-2.99 1.48-4.03c.67-1.04 1.52-1.81 2.56-2.3 1.03-.49 2.26-.74 3.67-.74 1.42 0 2.64.25 3.67.74s1.88 1.26 2.54 2.3 1.15 2.39 1.48 4.03c.32 1.64.49 3.62.49 5.92s-.16 4.28-.49 5.92c-.32 1.64-.82 2.99-1.48 4.03s-1.51 1.81-2.54 2.3c-1.03.5-2.25.74-3.67.74zm0-3.27c1.51 0 2.57-.51 3.19-1.53.61-1.02.92-2.59.92-4.7v-6.98c0-2.11-.31-3.68-.92-4.7s-1.67-1.53-3.19-1.53c-1.51 0-2.57.51-3.19 1.53-.61 1.02-.92 2.59-.92 4.7v6.98c0 2.11.31 3.68.92 4.7.62 1.02 1.68 1.53 3.19 1.53z"/><path d="m336.85 859.64h3.71v12.92l-.25 3.78h.4l2.38-3.49 4.1-5.29h4.28l-5.98 7.42 6.37 11.3h-4.25l-4.75-8.96-2.3 2.77v6.19h-3.71z"/><path d="m354.75 886.28v-18.72h3.71v3.1h.43c.74-2.35 2.24-3.53 4.5-3.53 2.33 0 3.88 1.2 4.64 3.6h.4c.38-1.22 1-2.13 1.84-2.72s1.9-.88 3.17-.88c1.61 0 2.86.57 3.76 1.71s1.35 2.81 1.35 5.02v12.42h-3.71v-11.92c0-1.32-.25-2.33-.74-3.02-.49-.7-1.24-1.04-2.25-1.04-.91 0-1.7.29-2.36.88s-.99 1.41-.99 2.46v12.64h-3.71v-11.92c0-1.32-.25-2.33-.74-3.02-.49-.7-1.24-1.04-2.25-1.04-.94 0-1.73.29-2.38.88s-.97 1.41-.97 2.46v12.64z"/><path d="m298.12 994.28v-3.28h6.01v-18.36l-5.62 3.64-1.58-2.66 6.91-4.46h4.03v21.85h5.4v3.28h-15.15z"/><path d="m324.54 994.72c-1.42 0-2.64-.25-3.67-.74s-1.88-1.26-2.56-2.3c-.67-1.04-1.16-2.39-1.48-4.03-.31-1.64-.47-3.62-.47-5.92s.16-4.28.47-5.92.8-2.99 1.48-4.03c.67-1.04 1.52-1.81 2.56-2.3 1.03-.49 2.26-.74 3.67-.74 1.42 0 2.64.25 3.67.74s1.88 1.26 2.54 2.3 1.15 2.39 1.48 4.03c.32 1.64.49 3.62.49 5.92s-.16 4.28-.49 5.92c-.32 1.64-.82 2.99-1.48 4.03s-1.51 1.81-2.54 2.3-2.25.74-3.67.74zm0-3.28c1.51 0 2.57-.51 3.19-1.53.61-1.02.92-2.59.92-4.7v-6.98c0-2.11-.31-3.68-.92-4.7s-1.67-1.53-3.19-1.53c-1.51 0-2.57.51-3.19 1.53-.61 1.02-.92 2.59-.92 4.7v6.98c0 2.11.31 3.68.92 4.7.62 1.02 1.68 1.53 3.19 1.53z"/><path d="m343.98 994.72c-1.42 0-2.64-.25-3.67-.74s-1.88-1.26-2.56-2.3c-.67-1.04-1.16-2.39-1.48-4.03-.31-1.64-.47-3.62-.47-5.92s.16-4.28.47-5.92.8-2.99 1.48-4.03c.67-1.04 1.52-1.81 2.56-2.3 1.03-.49 2.26-.74 3.67-.74 1.42 0 2.64.25 3.67.74s1.88 1.26 2.54 2.3 1.15 2.39 1.48 4.03c.32 1.64.49 3.62.49 5.92s-.16 4.28-.49 5.92c-.32 1.64-.82 2.99-1.48 4.03s-1.51 1.81-2.54 2.3-2.25.74-3.67.74zm0-3.28c1.51 0 2.57-.51 3.19-1.53.61-1.02.92-2.59.92-4.7v-6.98c0-2.11-.31-3.68-.92-4.7s-1.67-1.53-3.19-1.53c-1.51 0-2.57.51-3.19 1.53-.61 1.02-.92 2.59-.92 4.7v6.98c0 2.11.31 3.68.92 4.7.62 1.02 1.68 1.53 3.19 1.53z"/><path d="m363.85 994.28v-18.72h3.71v3.1h.44c.74-2.35 2.24-3.53 4.5-3.53 2.33 0 3.88 1.2 4.64 3.6h.4c.38-1.22 1-2.13 1.84-2.72s1.9-.88 3.17-.88c1.61 0 2.86.57 3.76 1.71s1.35 2.81 1.35 5.02v12.42h-3.71v-11.92c0-1.32-.25-2.33-.74-3.02-.49-.7-1.24-1.04-2.25-1.04-.91 0-1.7.29-2.36.88s-.99 1.41-.99 2.47v12.64h-3.71v-11.92c0-1.32-.25-2.33-.74-3.02-.49-.7-1.24-1.04-2.25-1.04-.94 0-1.73.29-2.38.88s-.97 1.41-.97 2.47v12.64h-3.71z"/><path d="m394.38 972c-1.49 0-2.23-.63-2.23-1.91v-.65c0-1.27.74-1.91 2.23-1.91s2.23.64 2.23 1.91v.65c0 1.28-.74 1.91-2.23 1.91zm-1.83 3.56h3.71v18.72h-3.71z"/><path d="m404.97 994.28c-1.3 0-2.23-.29-2.81-.88s-.86-1.51-.86-2.75v-23h3.7v23.58h2.23v3.06h-2.26z"/><path d="m417.46 994.72c-1.18 0-2.26-.19-3.24-.58-.98-.38-1.82-.98-2.52-1.78s-1.24-1.82-1.64-3.04-.59-2.69-.59-4.39.18-3.17.54-4.41.88-2.25 1.57-3.04c.68-.79 1.5-1.38 2.45-1.76s2.02-.58 3.22-.58c2.38 0 4.23.78 5.56 2.34s2 4.04 2 7.45v.94h-11.45v1.19c0 1.49.38 2.63 1.13 3.42.76.79 1.79 1.19 3.11 1.19 1.13 0 2.06-.25 2.79-.76.73-.5 1.35-1.21 1.85-2.12l2.16 2.05c-.67 1.18-1.58 2.12-2.72 2.83-1.13.69-2.54 1.05-4.22 1.05zm-.22-16.64c-1.25 0-2.21.38-2.88 1.13-.67.76-1.01 1.89-1.01 3.4v.76h7.52v-.76c.01-3.01-1.2-4.53-3.63-4.53z"/><path d="m434.16 994.72c-1.56 0-2.91-.29-4.05-.88s-2.13-1.44-2.97-2.57l2.38-2.19c.62.9 1.31 1.57 2.05 2.02s1.62.67 2.63.67c.98 0 1.74-.22 2.27-.67s.79-1.11.79-1.98c0-.68-.17-1.22-.5-1.63-.34-.41-.95-.7-1.84-.87l-1.62-.29c-1.9-.34-3.29-.92-4.18-1.76s-1.33-2.08-1.33-3.74c0-1.94.56-3.37 1.69-4.29s2.68-1.38 4.64-1.38c1.44 0 2.67.25 3.69.74s1.91 1.2 2.68 2.13l-2.23 2.19c-.5-.7-1.11-1.23-1.82-1.58s-1.47-.53-2.29-.53c-1.87 0-2.81.86-2.81 2.58 0 .75.19 1.31.58 1.67s1 .62 1.84.76l1.66.32c1.94.33 3.33.93 4.16 1.78s1.24 2.02 1.24 3.5c0 1.89-.58 3.37-1.73 4.42s-2.79 1.58-4.93 1.58z"/><circle cx="621.29" cy="304.98" fill="#fff" r="12.74" stroke="#000" stroke-miterlimit="10"/><ellipse cx="691.88" cy="344.59" fill="#fff" rx="13.43" ry="13.43" stroke="#000" stroke-miterlimit="10" transform="matrix(.7071 -.7071 .7071 .7071 -41.012 590.1622)"/><ellipse cx="576.3" cy="502.1" fill="#fff" rx="16.75" ry="16.75" stroke="#000" stroke-miterlimit="10" transform="matrix(.2298 -.9732 .9732 .2298 -44.7764 947.6228)"/><ellipse cx="707.98" cy="916.6" fill="#fff" rx="13.18" ry="13.18" stroke="#000" stroke-miterlimit="10" transform="matrix(.7071 -.7071 .7071 .7071 -440.7734 769.0801)"/><ellipse cx="938.8" cy="834.29" fill="#fff" rx="13.09" ry="13.09" stroke="#000" stroke-miterlimit="10" transform="matrix(.1602 -.9871 .9871 .1602 -35.0948 1627.3331)"/><path d="m247.05 845.6h169.33" fill="none" stroke="#000" stroke-miterlimit="10" stroke-width="5"/><path d="m416.38 835.62v19.54" fill="none" stroke="#000" stroke-miterlimit="10" stroke-width="5"/><path d="m244.05 835.62v19.54" fill="none" stroke="#000" stroke-miterlimit="10" stroke-width="5"/><path d="m245.39 949.78h265.66" fill="none" stroke="#000" stroke-miterlimit="10" stroke-width="5"/><path d="m245.39 939.81v19.54" fill="none" stroke="#000" stroke-miterlimit="10" stroke-width="5"/><path d="m513.05 940.81v19.54" fill="none" stroke="#000" stroke-miterlimit="10" stroke-width="5"/><path d="m624.05 708.14 8.89 11.8 12.47-7.94-3.68 14.31 13.97 4.8-13.48 6.05 4.96 13.91-13.13-6.77-7.79 12.56-2.88-14.49-14.68 1.74 9.53-11.3-10.51-10.38 14.77.4z" fill="#fff" stroke="#000" stroke-miterlimit="10"/><path d="m1379.57 89.16h43.29v49.04h-43.29z" fill="#ffbf61"/><path d="m1422.51 89.51v48.34h-42.59v-48.34zm.71-.7h-44v49.75h44z"/><path d="m1379.57 136.83h43.29v49.04h-43.29z" fill="#ff964c"/><path d="m1422.51 137.18v48.34h-42.59v-48.34zm.71-.71h-44v49.75h44z"/><path d="m1379.57 185.49h43.29v49.04h-43.29z" fill="#ff763b"/><path d="m1422.51 185.85v48.34h-42.59v-48.34zm.71-.71h-44v49.75h44z"/><path d="m1379.57 234.16h43.29v49.04h-43.29z" fill="#ff5d2e"/><path d="m1422.51 234.51v48.34h-42.59v-48.34zm.71-.7h-44v49.75h44z"/><path d="m1379.57 282.83h43.29v49.04h-43.29z" fill="#ff4924"/><path d="m1422.51 283.18v48.34h-42.59v-48.34zm.71-.71h-44v49.75h44z"/><path d="m1379.57 331.49h43.29v49.04h-43.29z" fill="#ff391c"/><path d="m1422.51 331.85v48.34h-42.59v-48.34zm.71-.71h-44v49.75h44z"/></svg>